# xmcd
#
# Track frame offsets:
#	183
#	13518
#	26133
#	36665
#	47823
#	60993
#	78368
#	90675
#	103875
#	115588
#	131838
#	144240
#	159008
#	174048
#
# Disc length: 2608 seconds
#
# Revision: 3
# Processed by: cddbd v1.5.2PL0 Copyright (c) Steve Scherf et al.
# Submitted via: EasyCDDAExtractor 2010.6.0.0
#
DISCID=aa0a2e0e
DTITLE=Various Artist - TRUCKER SONGS 1. FOLGE
DYEAR=1992
DGENRE=TRUCKERSONGS
TTITLE0=TRUCK STOP - ARIZONA, ARIZONA
TTITLE1=GUNTER GABRIEL - 500 MEILEN VON ZU HAUS
TTITLE2=TOM ASTOR - HIGHWAY HELDEN
TTITLE3=JONNY HILL - ICH FAHR MEINE TOUR (SIX DAYS ON THE ROAD)
TTITLE4=WESTERN UNION - HIGHWAY DRIVER 59
TTITLE5=GUNTER GABRIEL - STUR IN DER SPUR
TTITLE6=TOM ASTOR - VERDAMMTE RADARFALLE (LADY TRUCKER)
TTITLE7=TRUCK STOP - DER TRABBI UND DER TRUCK
TTITLE8=JONNY HILL - MEHR HINTERM LENKRAD ALS ZU HAUS (TRUCK DRIVING MAN)
TTITLE9=WESTERN UNION - NACH SÜDEN
TTITLE10=GUNTER GABRIEL - KÖNIG DER TRAMPS (KING OF THE ROAD)
TTITLE11=TOM ASTOR - GEISTERTRUCK
TTITLE12=TRUCK STOP - EASY RIDER
TTITLE13=JONNY HILL - RUF TEDDYBÄR EINS-VIER
EXTD=Regal Fernseher Nr. 16
EXTT0=
EXTT1=
EXTT2=
EXTT3=
EXTT4=
EXTT5=
EXTT6=
EXTT7=
EXTT8=
EXTT9=
EXTT10=
EXTT11=
EXTT12=
EXTT13=
PLAYORDER=
